<svg width="19" height="19" viewBox="0 0 19 19" fill="none" xmlns="http://www.w3.org/2000/svg">
<g clip-path="url(#clip0_750_21627)">
<path d="M17.4167 1.58301H12.2708L10.6875 5.66013C12.4535 6.0186 13.9348 7.16085 14.7527 8.70801L17.4167 1.58301Z" fill="#56CCC5"/>
<path fill-rule="evenodd" clip-rule="evenodd" d="M11.7174 1.36807C11.806 1.13971 12.0259 0.989258 12.2708 0.989258H17.4167C17.6113 0.989258 17.7936 1.08465 17.9045 1.24457C18.0155 1.4045 18.041 1.60864 17.9728 1.79095L15.3088 8.91595C15.2269 9.13496 15.0241 9.28552 14.7908 9.30053C14.5574 9.31554 14.337 9.1922 14.2277 8.98548C13.4912 7.59206 12.1571 6.56429 10.5694 6.24201C10.3978 6.20719 10.2504 6.09844 10.1665 5.94482C10.0825 5.7912 10.0707 5.60837 10.134 5.44519L11.7174 1.36807ZM12.6772 2.17676L11.4822 5.25397C12.7272 5.65006 13.8095 6.40881 14.6057 7.4056L16.5608 2.17676H12.6772Z" fill="#56CCC5"/>
<path d="M6.72933 1.58301H1.5835L4.24749 8.70801C5.06532 7.16085 6.54669 6.0186 8.31266 5.66013L6.72933 1.58301Z" fill="#56CCC5"/>
<path fill-rule="evenodd" clip-rule="evenodd" d="M1.09565 1.24457C1.20659 1.08465 1.38886 0.989258 1.5835 0.989258H6.72933C6.97431 0.989258 7.19413 1.13971 7.28281 1.36807L8.86615 5.44519C8.92952 5.60837 8.91765 5.7912 8.83371 5.94482C8.74978 6.09844 8.60234 6.20719 8.43078 6.24201C6.84309 6.56429 5.50899 7.59206 4.77242 8.98548C4.66315 9.1922 4.44273 9.31554 4.20938 9.30053C3.97604 9.28552 3.77324 9.13496 3.69135 8.91595L1.02735 1.79095C0.959188 1.60864 0.984704 1.4045 1.09565 1.24457ZM2.43939 2.17676L4.39443 7.4056C5.19062 6.40881 6.27294 5.65006 7.51798 5.25397L6.32296 2.17676H2.43939Z" fill="#56CCC5"/>
<path d="M15.4375 11.4795C15.4375 14.7587 12.7792 17.417 9.5 17.417C6.2208 17.417 3.5625 14.7587 3.5625 11.4795C3.5625 10.4787 3.81008 9.53583 4.24733 8.70866C5.06516 7.1615 6.54653 6.01925 8.3125 5.66078C8.69618 5.58288 9.09332 5.54199 9.5 5.54199C9.90668 5.54199 10.3038 5.58288 10.6875 5.66078C12.4535 6.01925 13.9348 7.1615 14.7527 8.70866C15.1899 9.53583 15.4375 10.4787 15.4375 11.4795Z" fill="#56CCC5"/>
<path fill-rule="evenodd" clip-rule="evenodd" d="M9.5 6.13574C9.13322 6.13574 8.77565 6.17261 8.43064 6.24266L8.43061 6.24267C6.84292 6.56494 5.50883 7.59271 4.77226 8.98614L4.77225 8.98614C4.37911 9.72987 4.15625 10.5778 4.15625 11.4795C4.15625 14.4308 6.54872 16.8232 9.5 16.8232C12.4513 16.8232 14.8438 14.4308 14.8438 11.4795C14.8438 10.5778 14.6209 9.72987 14.2277 8.98614C13.4912 7.59271 12.1571 6.56494 10.5694 6.24267L10.5694 6.24266C10.2244 6.17261 9.86678 6.13574 9.5 6.13574ZM8.19439 5.0789C8.61673 4.99315 9.05344 4.94824 9.5 4.94824C9.94657 4.94824 10.3833 4.99315 10.8056 5.0789L10.6875 5.66078L10.8056 5.0789C12.7499 5.47356 14.3785 6.7303 15.2776 8.43118L14.7527 8.70866L15.2776 8.43119C15.7589 9.34179 16.0313 10.3797 16.0313 11.4795C16.0313 15.0866 13.1071 18.0107 9.5 18.0107C5.89288 18.0107 2.96875 15.0866 2.96875 11.4795C2.96875 10.3797 3.24105 9.34179 3.72241 8.43118C4.6215 6.73031 6.25012 5.47356 8.19436 5.0789" fill="#56CCC5"/>
<path fill-rule="evenodd" clip-rule="evenodd" d="M9.84701 8.22634C10.0018 8.33793 10.0936 8.51716 10.0936 8.70801V13.2601H11.0832C11.4111 13.2601 11.6769 13.5259 11.6769 13.8538C11.6769 14.1818 11.4111 14.4476 11.0832 14.4476H9.50644C9.5017 14.4477 9.49696 14.4477 9.49224 14.4476H7.9165C7.58858 14.4476 7.32275 14.1818 7.32275 13.8538C7.32275 13.5259 7.58858 13.2601 7.9165 13.2601H8.73938L7.73632 9.24785C7.66107 8.94686 7.83024 8.63868 8.12458 8.54056L9.31208 8.14473C9.49314 8.08438 9.69218 8.11474 9.84701 8.22634Z" fill="#3F163D"/>
</g>
<defs>
<clipPath id="clip0_750_21627">
<rect width="19" height="19" fill="white"/>
</clipPath>
</defs>
</svg>
