<svg width="20" height="19" viewBox="0 0 20 19" fill="none" xmlns="http://www.w3.org/2000/svg">
<path fill-rule="evenodd" clip-rule="evenodd" d="M11.8953 1.07793C12.0704 1.18612 12.1769 1.37723 12.1769 1.58301V4.74968H10.9894V2.54372L4.26025 5.9083V15.664L8.15097 13.7186L8.68204 14.7807L3.93204 17.1557C3.74798 17.2478 3.5294 17.2379 3.35435 17.1297C3.1793 17.0216 3.07275 16.8305 3.07275 16.6247V5.54134C3.07275 5.31645 3.19982 5.11085 3.40097 5.01028L11.3176 1.05194C11.5017 0.959914 11.7203 0.969749 11.8953 1.07793Z" fill="#E7A3FF"/>
<path d="M8.4165 6.33333L16.3332 2.375V13.4583L8.4165 17.4167V6.33333Z" fill="#E7A3FF"/>
<path fill-rule="evenodd" clip-rule="evenodd" d="M16.6453 1.86993C16.8204 1.97811 16.9269 2.16922 16.9269 2.375V13.4583C16.9269 13.6832 16.7999 13.8888 16.5987 13.9894L8.68204 17.9477C8.49798 18.0398 8.2794 18.0299 8.10435 17.9217C7.9293 17.8136 7.82275 17.6224 7.82275 17.4167V6.33333C7.82275 6.10844 7.94982 5.90284 8.15097 5.80227L16.0676 1.84393C16.2517 1.75191 16.4703 1.76174 16.6453 1.86993ZM9.01025 6.70029V16.456L15.7394 13.0914V3.33571L9.01025 6.70029Z" fill="#E7A3FF"/>
</svg>
