<svg width="24" height="24" viewBox="0 0 24 24" fill="none" xmlns="http://www.w3.org/2000/svg">
<path fill-rule="evenodd" clip-rule="evenodd" d="M19 1.75C19.4142 1.75 19.75 2.08579 19.75 2.5V15.5C19.75 15.9142 19.4142 16.25 19 16.25H9C8.58579 16.25 8.25 15.9142 8.25 15.5C8.25 15.0858 8.58579 14.75 9 14.75H18.25V2.5C18.25 2.08579 18.5858 1.75 19 1.75Z" fill="#E7A3FF" stroke="#E7A3FF" stroke-width="0.5" stroke-linecap="round" stroke-linejoin="round"/>
<path fill-rule="evenodd" clip-rule="evenodd" d="M4.25 10.5C4.25 10.0858 4.58579 9.75 5 9.75H15C15.4142 9.75 15.75 10.0858 15.75 10.5C15.75 10.9142 15.4142 11.25 15 11.25H5.75V21.5C5.75 21.9142 5.41421 22.25 5 22.25C4.58579 22.25 4.25 21.9142 4.25 21.5V10.5Z" fill="#E7A3FF" stroke="#E7A3FF" stroke-width="0.5" stroke-linecap="round" stroke-linejoin="round"/>
<path fill-rule="evenodd" clip-rule="evenodd" d="M18.4697 1.96967C18.7626 1.67678 19.2374 1.67678 19.5303 1.96967L22.5303 4.96967C22.8232 5.26256 22.8232 5.73744 22.5303 6.03033C22.2374 6.32322 21.7626 6.32322 21.4697 6.03033L19 3.56066L16.5303 6.03033C16.2374 6.32322 15.7626 6.32322 15.4697 6.03033C15.1768 5.73744 15.1768 5.26256 15.4697 4.96967L18.4697 1.96967Z" fill="#E7A3FF" stroke="#E7A3FF" stroke-width="0.5" stroke-linecap="round" stroke-linejoin="round"/>
<path fill-rule="evenodd" clip-rule="evenodd" d="M1.46967 17.9697C1.76256 17.6768 2.23744 17.6768 2.53033 17.9697L5 20.4393L7.46967 17.9697C7.76256 17.6768 8.23744 17.6768 8.53033 17.9697C8.82322 18.2626 8.82322 18.7374 8.53033 19.0303L5.53033 22.0303C5.23744 22.3232 4.76256 22.3232 4.46967 22.0303L1.46967 19.0303C1.17678 18.7374 1.17678 18.2626 1.46967 17.9697Z" fill="#E7A3FF" stroke="#E7A3FF" stroke-width="0.5" stroke-linecap="round" stroke-linejoin="round"/>
</svg>
