<svg width="18" height="17" viewBox="0 0 18 17" fill="none" xmlns="http://www.w3.org/2000/svg">
<path d="M5.104 14.875H12.8957L15.0207 7.4375L11.479 9.20833L8.99984 4.25L6.52067 9.20833L2.979 7.4375L5.104 14.875Z" fill="#FFF6A3"/>
<path fill-rule="evenodd" clip-rule="evenodd" d="M8.99986 3.71875C9.20108 3.71875 9.38503 3.83244 9.47502 4.01242L11.7166 8.49559L14.7831 6.96234C14.9715 6.86812 15.1979 6.89415 15.36 7.0287C15.5221 7.16324 15.5894 7.38088 15.5315 7.58345L13.4065 15.0209C13.3413 15.249 13.1329 15.4062 12.8957 15.4062H5.10403C4.86683 15.4062 4.65838 15.249 4.59322 15.0209L2.46822 7.58345C2.41034 7.38088 2.47763 7.16324 2.63975 7.0287C2.80187 6.89415 3.02817 6.86812 3.21661 6.96234L6.28311 8.49559L8.5247 4.01242C8.61468 3.83244 8.79864 3.71875 8.99986 3.71875ZM8.99986 5.43791L6.99586 9.44592C6.86464 9.70834 6.54554 9.81471 6.28311 9.6835L3.8216 8.45274L5.50475 14.3437H12.495L14.1781 8.45274L11.7166 9.6835C11.4542 9.81471 11.1351 9.70834 11.0039 9.44592L8.99986 5.43791Z" fill="#FFF6A3"/>
<path d="M2.979 7.4375C3.56581 7.4375 4.0415 6.9618 4.0415 6.375C4.0415 5.7882 3.56581 5.3125 2.979 5.3125C2.3922 5.3125 1.9165 5.7882 1.9165 6.375C1.9165 6.9618 2.3922 7.4375 2.979 7.4375Z" fill="#FFF6A3"/>
<path fill-rule="evenodd" clip-rule="evenodd" d="M2.979 5.84375C2.6856 5.84375 2.44775 6.0816 2.44775 6.375C2.44775 6.6684 2.6856 6.90625 2.979 6.90625C3.2724 6.90625 3.51025 6.6684 3.51025 6.375C3.51025 6.0816 3.2724 5.84375 2.979 5.84375ZM1.38525 6.375C1.38525 5.4948 2.0988 4.78125 2.979 4.78125C3.85921 4.78125 4.57275 5.4948 4.57275 6.375C4.57275 7.2552 3.85921 7.96875 2.979 7.96875C2.0988 7.96875 1.38525 7.2552 1.38525 6.375Z" fill="#FFF6A3"/>
<path d="M9 4.25C9.5868 4.25 10.0625 3.7743 10.0625 3.1875C10.0625 2.6007 9.5868 2.125 9 2.125C8.4132 2.125 7.9375 2.6007 7.9375 3.1875C7.9375 3.7743 8.4132 4.25 9 4.25Z" fill="#FFF6A3"/>
<path fill-rule="evenodd" clip-rule="evenodd" d="M9 2.65625C8.7066 2.65625 8.46875 2.8941 8.46875 3.1875C8.46875 3.4809 8.7066 3.71875 9 3.71875C9.2934 3.71875 9.53125 3.4809 9.53125 3.1875C9.53125 2.8941 9.2934 2.65625 9 2.65625ZM7.40625 3.1875C7.40625 2.3073 8.1198 1.59375 9 1.59375C9.8802 1.59375 10.5937 2.3073 10.5937 3.1875C10.5937 4.0677 9.8802 4.78125 9 4.78125C8.1198 4.78125 7.40625 4.0677 7.40625 3.1875Z" fill="#FFF6A3"/>
<path d="M15.021 7.4375C15.6078 7.4375 16.0835 6.9618 16.0835 6.375C16.0835 5.7882 15.6078 5.3125 15.021 5.3125C14.4342 5.3125 13.9585 5.7882 13.9585 6.375C13.9585 6.9618 14.4342 7.4375 15.021 7.4375Z" fill="#FFF6A3"/>
<path fill-rule="evenodd" clip-rule="evenodd" d="M15.021 5.84375C14.7276 5.84375 14.4897 6.0816 14.4897 6.375C14.4897 6.6684 14.7276 6.90625 15.021 6.90625C15.3144 6.90625 15.5522 6.6684 15.5522 6.375C15.5522 6.0816 15.3144 5.84375 15.021 5.84375ZM13.4272 6.375C13.4272 5.4948 14.1408 4.78125 15.021 4.78125C15.9012 4.78125 16.6147 5.4948 16.6147 6.375C16.6147 7.2552 15.9012 7.96875 15.021 7.96875C14.1408 7.96875 13.4272 7.2552 13.4272 6.375Z" fill="#FFF6A3"/>
</svg>
