<svg width="20" height="19" viewBox="0 0 20 19" fill="none" xmlns="http://www.w3.org/2000/svg">
<g clip-path="url(#clip0_737_21969)">
<path fill-rule="evenodd" clip-rule="evenodd" d="M10.0002 2.17676C5.95583 2.17676 2.67725 5.45534 2.67725 9.49967C2.67725 13.544 5.95583 16.8226 10.0002 16.8226C14.0445 16.8226 17.3231 13.544 17.3231 9.49967C17.3231 5.45534 14.0445 2.17676 10.0002 2.17676ZM1.48975 9.49967C1.48975 4.7995 5.29999 0.989258 10.0002 0.989258C14.7003 0.989258 18.5106 4.7995 18.5106 9.49967C18.5106 14.1998 14.7003 18.0101 10.0002 18.0101C5.29999 18.0101 1.48975 14.1998 1.48975 9.49967Z" fill="#E9ACFF" stroke="#E9ACFF"/>
<path fill-rule="evenodd" clip-rule="evenodd" d="M13.1905 6.30965C13.4224 6.54152 13.4224 6.91746 13.1905 7.14934L7.64885 12.691C7.41697 12.9229 7.04103 12.9229 6.80916 12.691C6.57729 12.4591 6.57729 12.0832 6.80916 11.8513L12.3508 6.30965C12.5827 6.07777 12.9586 6.07777 13.1905 6.30965Z" fill="#E9ACFF" stroke="#E9ACFF" stroke-linecap="round" stroke-linejoin="round"/>
<path fill-rule="evenodd" clip-rule="evenodd" d="M13.1908 12.691C12.959 12.9229 12.583 12.9229 12.3512 12.691L6.80949 7.14934C6.57761 6.91746 6.57761 6.54152 6.80949 6.30965C7.04136 6.07777 7.4173 6.07777 7.64917 6.30965L13.1908 11.8513C13.4227 12.0832 13.4227 12.4591 13.1908 12.691Z" fill="#E9ACFF" stroke="#E9ACFF" stroke-linecap="round" stroke-linejoin="round"/>
</g>
<defs>
<clipPath id="clip0_737_21969">
<rect width="19" height="19" fill="white" transform="translate(0.5)"/>
</clipPath>
</defs>
</svg>
