<svg width="20" height="19" viewBox="0 0 20 19" fill="none" xmlns="http://www.w3.org/2000/svg">
<g clip-path="url(#clip0_737_21860)">
<path fill-rule="evenodd" clip-rule="evenodd" d="M7.72488 1.29747C7.99673 1.22222 8.284 1.34861 8.41218 1.59987C8.70752 2.17877 9.30832 2.57309 10.0002 2.57309C10.692 2.57309 11.2928 2.17877 11.5881 1.59987C11.7163 1.34861 12.0036 1.22222 12.2754 1.29747C13.6089 1.66661 14.8102 2.35174 15.7939 3.26639C15.986 3.445 16.0381 3.72851 15.9221 3.96378C15.8055 4.20024 15.7397 4.46668 15.7397 4.75017C15.7397 5.73392 16.5372 6.53142 17.521 6.53142L17.5458 6.53124C17.8083 6.52749 18.0421 6.69656 18.1208 6.94701C18.3742 7.75373 18.5106 8.61159 18.5106 9.50017C18.5106 10.0867 18.4512 10.6599 18.3378 11.214C18.2769 11.5119 18.0007 11.7156 17.6981 11.6859C17.64 11.6802 17.581 11.6773 17.521 11.6773C16.5372 11.6773 15.7397 12.4747 15.7397 13.4585C15.7397 13.8964 15.897 14.296 16.1588 14.6063C16.3549 14.8387 16.3436 15.1817 16.1328 15.4009C15.1283 16.4446 13.8592 17.233 12.4322 17.6578C12.1224 17.7501 11.7957 17.5775 11.6973 17.2696C11.4675 16.5507 10.7937 16.0314 10.0002 16.0314C9.20662 16.0314 8.53284 16.5507 8.30306 17.2696C8.20462 17.5775 7.87792 17.7501 7.56808 17.6578C6.14114 17.233 4.87198 16.4446 3.86754 15.4009C3.65666 15.1817 3.64545 14.8387 3.84156 14.6063C4.10335 14.296 4.26058 13.8964 4.26058 13.4585C4.26058 12.4747 3.46309 11.6773 2.47933 11.6773C2.41935 11.6773 2.36029 11.6802 2.30226 11.6859C1.99962 11.7156 1.72344 11.5119 1.6625 11.214C1.54916 10.6599 1.48975 10.0867 1.48975 9.50017C1.48975 8.61159 1.62613 7.75374 1.87953 6.947C1.9582 6.69656 2.19199 6.5275 2.45447 6.53124L2.47933 6.53142C3.46309 6.53142 4.26058 5.73392 4.26058 4.75017C4.26058 4.46668 4.19478 4.20024 4.07819 3.96378C3.9622 3.72851 4.01432 3.445 4.20642 3.26639C5.19008 2.35174 6.39138 1.66661 7.72488 1.29747ZM5.31569 3.87135C5.40178 4.14948 5.44808 4.44478 5.44808 4.75017C5.44808 6.24599 4.34181 7.48342 2.90281 7.68894C2.7556 8.26769 2.67725 8.87441 2.67725 9.50017C2.67725 9.84009 2.70037 10.1743 2.74506 10.5015C4.26017 10.6359 5.44808 11.9085 5.44808 13.4585C5.44808 13.9865 5.30985 14.483 5.06785 14.913C5.7461 15.5314 6.5406 16.0238 7.41428 16.3536C7.92367 15.4527 8.89027 14.8439 10.0002 14.8439C11.11 14.8439 12.0767 15.4527 12.586 16.3536C13.4597 16.0238 14.2542 15.5314 14.9325 14.913C14.6905 14.483 14.5522 13.9865 14.5522 13.4585C14.5522 11.9085 15.7402 10.6359 17.2553 10.5015C17.3 10.1743 17.3231 9.84009 17.3231 9.50017C17.3231 8.87441 17.2447 8.26769 17.0975 7.68894C15.6585 7.48342 14.5522 6.24598 14.5522 4.75017C14.5522 4.44478 14.5985 4.14948 14.6846 3.87135C14.0074 3.30704 13.2271 2.86295 12.3766 2.57131C11.8356 3.29269 10.9729 3.76059 10.0002 3.76059C9.02746 3.76059 8.16475 3.29269 7.62373 2.57131C6.77318 2.86295 5.99293 3.30704 5.31569 3.87135Z" fill="#E7A3FF" stroke="#E7A3FF" stroke-linejoin="round"/>
<path fill-rule="evenodd" clip-rule="evenodd" d="M6.63525 9.49984C6.63525 7.64163 8.14163 6.13525 9.99984 6.13525C11.858 6.13525 13.3644 7.64163 13.3644 9.49984C13.3644 11.358 11.858 12.8644 9.99984 12.8644C8.14163 12.8644 6.63525 11.358 6.63525 9.49984ZM9.99984 7.32275C8.79746 7.32275 7.82275 8.29746 7.82275 9.49984C7.82275 10.7022 8.79746 11.6769 9.99984 11.6769C11.2022 11.6769 12.1769 10.7022 12.1769 9.49984C12.1769 8.29746 11.2022 7.32275 9.99984 7.32275Z" fill="#E7A3FF" stroke="#E7A3FF" stroke-linejoin="round"/>
</g>
<defs>
<clipPath id="clip0_737_21860">
<rect width="19" height="19" fill="white" transform="translate(0.5)"/>
</clipPath>
</defs>
</svg>
